<?xml version="1.0" encoding="UTF-8" standalone="no"?>
<!-- Created with Inkscape (http://www.inkscape.org/) -->

<svg
   xmlns:dc="http://purl.org/dc/elements/1.1/"
   xmlns:cc="http://creativecommons.org/ns#"
   xmlns:rdf="http://www.w3.org/1999/02/22-rdf-syntax-ns#"
   xmlns:svg="http://www.w3.org/2000/svg"
   xmlns="http://www.w3.org/2000/svg"
   xmlns:sodipodi="http://sodipodi.sourceforge.net/DTD/sodipodi-0.dtd"
   xmlns:inkscape="http://www.inkscape.org/namespaces/inkscape"
   width="150"
   height="80"
   viewBox="0 0 78.171494 75.858276"
   version="1.1"
   id="svg8"
   inkscape:version="0.92.2 5c3e80d, 2017-08-06"
   sodipodi:docname="table-it-compressed.svg">
  <defs
     id="defs2">
    <marker
       inkscape:stockid="Arrow1Lstart"
       orient="auto"
       refY="0"
       refX="0"
       id="Arrow1Lstart"
       style="overflow:visible"
       inkscape:isstock="true">
      <path
         id="path1308"
         d="M 0,0 5,-5 -12.5,0 5,5 Z"
         style="fill-rule:evenodd;stroke:#000000;stroke-width:1.00000003pt"
         transform="matrix(0.8,0,0,0.8,10,0)"
         inkscape:connector-curvature="0" />
    </marker>
  </defs>
  <sodipodi:namedview
     id="base"
     pagecolor="#ffffff"
     bordercolor="#666666"
     borderopacity="1.0"
     inkscape:pageopacity="0.0"
     inkscape:pageshadow="2"
     inkscape:zoom="0.32"
     inkscape:cx="-12.52965"
     inkscape:cy="326.8619"
     inkscape:document-units="px"
     inkscape:current-layer="layer1"
     showgrid="false"
     inkscape:snap-grids="true"
     inkscape:window-width="1440"
     inkscape:window-height="852"
     inkscape:window-x="0"
     inkscape:window-y="0"
     inkscape:window-maximized="1"
     fit-margin-top="0"
     fit-margin-left="0"
     fit-margin-right="0"
     fit-margin-bottom="0"
     units="px" />
  <metadata
     id="metadata5">
    <rdf:RDF>
      <cc:Work
         rdf:about="">
        <dc:format>image/svg+xml</dc:format>
        <dc:type
           rdf:resource="http://purl.org/dc/dcmitype/StillImage" />
        <dc:title />
      </cc:Work>
    </rdf:RDF>
  </metadata>
  <g
     inkscape:label="Layer 1"
     inkscape:groupmode="layer"
     id="layer1"
     transform="translate(-283.09017,-122.46755)">
    <g
       id="g1170"
       transform="matrix(0.58595783,0,0,0.51555359,46.374443,217.478)" />
    <g
       id="g1172"
       transform="matrix(0.58595783,0,0,0.51555359,46.374443,217.478)" />
    <g
       id="g1174"
       transform="matrix(0.58595783,0,0,0.51555359,46.374443,217.478)" />
    <g
       id="g1176"
       transform="matrix(0.58595783,0,0,0.51555359,46.374443,217.478)" />
    <g
       id="g1178"
       transform="matrix(0.58595783,0,0,0.51555359,46.374443,217.478)" />
    <g
       id="g1180"
       transform="matrix(0.58595783,0,0,0.51555359,46.374443,217.478)" />
    <g
       id="g1182"
       transform="matrix(0.58595783,0,0,0.51555359,46.374443,217.478)" />
    <g
       id="g1184"
       transform="matrix(0.58595783,0,0,0.51555359,46.374443,217.478)" />
    <g
       id="g1186"
       transform="matrix(0.58595783,0,0,0.51555359,46.374443,217.478)" />
    <g
       id="g1188"
       transform="matrix(0.58595783,0,0,0.51555359,46.374443,217.478)" />
    <g
       id="g1190"
       transform="matrix(0.58595783,0,0,0.51555359,46.374443,217.478)" />
    <g
       id="g1192"
       transform="matrix(0.58595783,0,0,0.51555359,46.374443,217.478)" />
    <g
       id="g1194"
       transform="matrix(0.58595783,0,0,0.51555359,46.374443,217.478)" />
    <g
       id="g1196"
       transform="matrix(0.58595783,0,0,0.51555359,46.374443,217.478)" />
    <g
       id="g1198"
       transform="matrix(0.58595783,0,0,0.51555359,46.374443,217.478)" />
    <flowRoot
       xml:space="preserve"
       id="flowRoot1300"
       style="font-style:normal;font-weight:normal;font-size:40px;line-height:125%;font-family:sans-serif;letter-spacing:0px;word-spacing:0px;fill:#000000;fill-opacity:1;stroke:none;stroke-width:1px;stroke-linecap:butt;stroke-linejoin:miter;stroke-opacity:1"
       transform="scale(0.26458333)"><flowRegion
         id="flowRegion1302"><rect
           id="rect1304"
           width="14.17236"
           height="365.90366"
           x="2097.1428"
           y="819.66254" /></flowRegion><flowPara
         id="flowPara1306" /></flowRoot>    <g
       id="g2015"
       transform="translate(260.17361,-23.938492)">
      <path
         style="fill:#400c64;fill-opacity:1;stroke-width:0.03508097"
         d="m 44.314353,212.17244 c -0.313559,-0.0159 -0.679934,-0.11332 -1.125052,-0.29886 -0.244615,-0.10202 -0.604313,-0.23652 -0.799328,-0.29899 -0.479862,-0.15372 -2.314143,-0.63244 -2.948989,-0.76968 -1.30948,-0.28309 -1.611388,-0.38943 -1.750772,-0.61665 -0.17099,-0.27876 -0.106307,-0.54925 0.232877,-0.97367 0.354231,-0.44327 0.841669,-0.65684 1.314355,-0.57588 0.105111,0.0182 1.062503,0.30192 2.127471,0.63092 1.064966,0.329 2.041657,0.61792 2.170416,0.64207 0.273813,0.0513 0.523756,0.0166 0.677722,-0.094 0.241661,-0.17374 0.30478,-0.47033 0.399904,-1.87908 0.06663,-0.98684 0.247067,-1.64279 0.653527,-2.37582 0.246206,-0.44402 0.344796,-0.52057 0.776251,-0.6026 0.331921,-0.0631 0.458605,-0.0528 0.659681,0.0535 0.293868,0.15543 0.451067,0.47568 0.432301,0.88073 -0.01303,0.28101 -0.637998,3.3333 -0.921593,4.50092 -0.137194,0.56484 -0.186026,0.69143 -0.394976,1.02386 -0.148804,0.23674 -0.469361,0.51121 -0.718338,0.61507 -0.196177,0.0818 -0.576877,0.14881 -0.785456,0.13815 z m -9.419419,-4.42472 c -0.2712,-0.0534 -0.382481,-0.14238 -0.419604,-0.33515 -0.02628,-0.13642 0.01229,-0.27162 0.291238,-1.02124 0.176832,-0.47518 0.378739,-0.96157 0.448688,-1.08088 0.230555,-0.39321 0.595517,-0.68671 0.975613,-0.78461 0.201562,-0.0519 0.280225,-0.0477 1.311003,0.0692 1.563567,0.17753 1.772823,0.22617 2.030175,0.47245 0.220404,0.21093 0.210175,0.61353 -0.02241,0.88233 -0.213224,0.24641 -0.65402,0.43901 -1.07126,0.46804 -0.110648,0.008 -0.449638,-0.0102 -0.753316,-0.0395 -0.30368,-0.0295 -0.667989,-0.0483 -0.809555,-0.042 -0.241596,0.0108 -0.267998,0.0181 -0.430262,0.11979 -0.144675,0.0906 -0.201596,0.16185 -0.349017,0.4365 -0.2838,0.52874 -0.503119,0.7507 -0.832434,0.84247 -0.139699,0.0389 -0.221267,0.0417 -0.36885,0.0126 z m 6.893401,-2.36345 c -0.173383,0.007 -0.268241,-0.13527 -0.323766,-0.48813 -0.04077,-0.25911 -0.03546,-0.292 0.110059,-0.68236 0.08409,-0.22556 0.163423,-0.49626 0.176293,-0.60152 0.03096,-0.25372 0.17707,-0.80892 0.278437,-1.05843 0.155612,-0.38303 0.482848,-0.6764 0.922439,-0.827 0.442409,-0.15154 1.724323,-0.13776 2.672759,0.0287 0.217079,0.0386 0.239429,0.0509 0.318947,0.18241 0.108965,0.18023 0.153619,0.50961 0.09462,0.69793 -0.05785,0.18467 -0.299824,0.44288 -0.557589,0.59501 -0.265351,0.15659 -0.674782,0.23841 -1.036501,0.20711 -0.50191,-0.0435 -0.843188,0.0955 -0.993162,0.40419 -0.340309,0.70058 -0.60962,1.05525 -0.972121,1.28029 -0.253951,0.15766 -0.506837,0.25353 -0.69041,0.26175 z"
         id="path1814"
         inkscape:connector-curvature="0"
         inkscape:export-xdpi="96"
         inkscape:export-ydpi="96" />
      <path
         inkscape:connector-curvature="0"
         id="path1862"
         d="m 32.951643,222.10182 c -4.94784,-0.57316 -8.836788,-4.2451 -9.818043,-9.27014 -0.12924,-0.66175 -0.219399,-12.52441 -0.216994,-28.54522 0.004,-22.92249 0.05978,-27.66813 0.344057,-28.97091 0.931333,-4.26843 4.43463,-7.67078 8.829695,-8.57528 1.341447,-0.27606 6.227892,-0.3308 29.830497,-0.33415 16.496152,-0.003 28.710778,0.0852 29.392175,0.21076 4.032428,0.7427 7.137285,3.09498 8.76909,6.6436 1.00313,2.18143 1.05931,4.05393 0.98178,32.72591 -0.0728,26.92926 -0.0752,27.04753 -0.57975,28.47953 -1.232763,3.49891 -4.02672,6.17435 -7.665692,7.34053 -1.227133,0.39327 -2.965761,0.41983 -29.739657,0.45446 -15.639986,0.0202 -29.197196,-0.0514 -30.127158,-0.15909 z m 58.590754,-7.93738 c 0.359896,-0.26098 0.874222,-0.76026 1.142939,-1.10955 0.46185,-0.60029 0.4924,-0.98673 0.558377,-7.06261 l 0.06986,-6.42757 H 62.023052 30.732535 v 6.08376 c 0,6.30439 0.08074,6.93032 1.022902,7.92665 1.150865,1.21707 -0.206341,1.16755 30.535928,1.11381 28.472906,-0.0498 28.599567,-0.0521 29.251085,-0.52449 z M 46.372453,184.37541 v -7.59467 h -7.819986 -7.819986 v 7.59467 7.59465 h 7.819986 7.819986 z m 23.459971,0 v -7.59467 h -7.819986 -7.819986 v 7.59467 7.59465 h 7.819986 7.819986 z m 23.459976,0 v -7.59467 h -7.81999 -7.819986 v 7.59467 7.59465 H 85.47241 93.2924 Z M 46.372453,161.59144 v -7.59466 h -6.436597 c -6.418661,0 -6.439377,9.9e-4 -7.436136,0.5689 -1.665997,0.94821 -1.767239,1.4367 -1.767239,8.52634 v 6.09407 h 7.819986 7.819986 z m 23.459971,0 v -7.59466 h -7.819986 -7.819986 v 7.59466 7.59465 h 7.819986 7.819986 z m 23.411289,1.16708 c -0.06596,-6.07589 -0.09659,-6.46231 -0.558377,-7.06261 -0.268717,-0.34928 -0.782828,-0.84857 -1.142469,-1.10955 -0.618107,-0.44854 -1.01601,-0.4782 -7.272172,-0.54229 l -6.618271,-0.0678 v 7.6049 7.60492 h 7.830545 7.83055 z"
         style="fill:#400c64;fill-opacity:1;stroke-width:0.23353025" />
      <text
         transform="scale(1.0069608,0.99308735)"
         id="text1874"
         y="213.40344"
         x="52.906906"
         style="font-style:normal;font-variant:normal;font-weight:normal;font-stretch:normal;font-size:10.10345745px;line-height:125%;font-family:Kavoon;-inkscape-font-specification:Kavoon;letter-spacing:0px;word-spacing:0px;fill:#400c64;fill-opacity:1;stroke:none;stroke-width:0.25258642px;stroke-linecap:butt;stroke-linejoin:miter;stroke-opacity:1"
         xml:space="preserve"><tspan
           style="font-style:normal;font-variant:normal;font-weight:normal;font-stretch:normal;font-family:Kavoon;-inkscape-font-specification:Kavoon;fill:#400c64;fill-opacity:1;stroke-width:0.25258642px"
           y="213.40344"
           x="52.906906"
           id="tspan1872"
           sodipodi:role="line">Table It</tspan></text>
    </g>
  </g>
</svg>
